<svg width="390" height="270"  xmlns="http://www.w3.org/2000/svg" xmlns:xlink="http://www.w3.org/1999/xlink" version="1.1"><rect x="240" y="210" width="30" height="30" fill="#1e90ff" /><rect x="270" y="210" width="30" height="30" fill="#1e90ff" /><rect x="300" y="210" width="30" height="30" fill="#1e90ff" /><line x1="240" y1="210" x2="240" y2="240" stroke="black" stroke-width="2" /><line x1="240" y1="210" x2="270" y2="210" stroke="black" stroke-width="2" /><line x1="270" y1="210" x2="300" y2="210" stroke="black" stroke-width="2" /><line x1="300" y1="210" x2="330" y2="210" stroke="black" stroke-width="2" /><line x1="330" y1="210" x2="330" y2="240" stroke="black" stroke-width="2" /><line x1="240" y1="240" x2="270" y2="240" stroke="black" stroke-width="2" /><line x1="270" y1="240" x2="300" y2="240" stroke="black" stroke-width="2" /><line x1="300" y1="240" x2="330" y2="240" stroke="black" stroke-width="2" /><rect x="120" y="180" width="30" height="30" fill="#00ff00" /><rect x="90" y="210" width="30" height="30" fill="#00ff00" /><rect x="120" y="210" width="30" height="30" fill="#00ff00" /><rect x="150" y="210" width="30" height="30" fill="#00ff00" /><line x1="120" y1="180" x2="120" y2="210" stroke="black" stroke-width="2" /><line x1="120" y1="180" x2="150" y2="180" stroke="black" stroke-width="2" /><line x1="150" y1="180" x2="150" y2="210" stroke="black" stroke-width="2" /><line x1="90" y1="210" x2="90" y2="240" stroke="black" stroke-width="2" /><line x1="90" y1="210" x2="120" y2="210" stroke="black" stroke-width="2" /><line x1="150" y1="210" x2="180" y2="210" stroke="black" stroke-width="2" /><line x1="180" y1="210" x2="180" y2="240" stroke="black" stroke-width="2" /><line x1="90" y1="240" x2="120" y2="240" stroke="black" stroke-width="2" /><line x1="120" y1="240" x2="150" y2="240" stroke="black" stroke-width="2" /><line x1="150" y1="240" x2="180" y2="240" stroke="black" stroke-width="2" /><rect x="330" y="150" width="30" height="30" fill="#00ff00" /><rect x="300" y="180" width="30" height="30" fill="#00ff00" /><rect x="330" y="180" width="30" height="30" fill="#00ff00" /><rect x="330" y="210" width="30" height="30" fill="#00ff00" /><line x1="330" y1="150" x2="330" y2="180" stroke="black" stroke-width="2" /><line x1="330" y1="150" x2="360" y2="150" stroke="black" stroke-width="2" /><line x1="360" y1="150" x2="360" y2="180" stroke="black" stroke-width="2" /><line x1="300" y1="180" x2="300" y2="210" stroke="black" stroke-width="2" /><line x1="300" y1="180" x2="330" y2="180" stroke="black" stroke-width="2" /><line x1="360" y1="180" x2="360" y2="210" stroke="black" stroke-width="2" /><line x1="300" y1="210" x2="330" y2="210" stroke="black" stroke-width="2" /><line x1="330" y1="210" x2="330" y2="240" stroke="black" stroke-width="2" /><line x1="360" y1="210" x2="360" y2="240" stroke="black" stroke-width="2" /><line x1="330" y1="240" x2="360" y2="240" stroke="black" stroke-width="2" /><rect x="210" y="150" width="30" height="30" fill="#00ff00" /><rect x="210" y="180" width="30" height="30" fill="#00ff00" /><rect x="240" y="180" width="30" height="30" fill="#00ff00" /><rect x="210" y="210" width="30" height="30" fill="#00ff00" /><line x1="210" y1="150" x2="210" y2="180" stroke="black" stroke-width="2" /><line x1="210" y1="150" x2="240" y2="150" stroke="black" stroke-width="2" /><line x1="240" y1="150" x2="240" y2="180" stroke="black" stroke-width="2" /><line x1="210" y1="180" x2="210" y2="210" stroke="black" stroke-width="2" /><line x1="240" y1="180" x2="270" y2="180" stroke="black" stroke-width="2" /><line x1="270" y1="180" x2="270" y2="210" stroke="black" stroke-width="2" /><line x1="210" y1="210" x2="210" y2="240" stroke="black" stroke-width="2" /><line x1="240" y1="210" x2="240" y2="240" stroke="black" stroke-width="2" /><line x1="240" y1="210" x2="270" y2="210" stroke="black" stroke-width="2" /><line x1="210" y1="240" x2="240" y2="240" stroke="black" stroke-width="2" /><rect x="180" y="150" width="30" height="30" fill="#00ff00" /><rect x="150" y="180" width="30" height="30" fill="#00ff00" /><rect x="180" y="180" width="30" height="30" fill="#00ff00" /><rect x="180" y="210" width="30" height="30" fill="#00ff00" /><line x1="180" y1="150" x2="180" y2="180" stroke="black" stroke-width="2" /><line x1="180" y1="150" x2="210" y2="150" stroke="black" stroke-width="2" /><line x1="210" y1="150" x2="210" y2="180" stroke="black" stroke-width="2" /><line x1="150" y1="180" x2="150" y2="210" stroke="black" stroke-width="2" /><line x1="150" y1="180" x2="180" y2="180" stroke="black" stroke-width="2" /><line x1="210" y1="180" x2="210" y2="210" stroke="black" stroke-width="2" /><line x1="150" y1="210" x2="180" y2="210" stroke="black" stroke-width="2" /><line x1="180" y1="210" x2="180" y2="240" stroke="black" stroke-width="2" /><line x1="210" y1="210" x2="210" y2="240" stroke="black" stroke-width="2" /><line x1="180" y1="240" x2="210" y2="240" stroke="black" stroke-width="2" /><rect x="60" y="150" width="30" height="30" fill="#00ff00" /><rect x="60" y="180" width="30" height="30" fill="#00ff00" /><rect x="90" y="180" width="30" height="30" fill="#00ff00" /><rect x="60" y="210" width="30" height="30" fill="#00ff00" /><line x1="60" y1="150" x2="60" y2="180" stroke="black" stroke-width="2" /><line x1="60" y1="150" x2="90" y2="150" stroke="black" stroke-width="2" /><line x1="90" y1="150" x2="90" y2="180" stroke="black" stroke-width="2" /><line x1="60" y1="180" x2="60" y2="210" stroke="black" stroke-width="2" /><line x1="90" y1="180" x2="120" y2="180" stroke="black" stroke-width="2" /><line x1="120" y1="180" x2="120" y2="210" stroke="black" stroke-width="2" /><line x1="60" y1="210" x2="60" y2="240" stroke="black" stroke-width="2" /><line x1="90" y1="210" x2="90" y2="240" stroke="black" stroke-width="2" /><line x1="90" y1="210" x2="120" y2="210" stroke="black" stroke-width="2" /><line x1="60" y1="240" x2="90" y2="240" stroke="black" stroke-width="2" /><rect x="30" y="150" width="30" height="30" fill="#1e90ff" /><rect x="30" y="180" width="30" height="30" fill="#1e90ff" /><rect x="30" y="210" width="30" height="30" fill="#1e90ff" /><line x1="30" y1="150" x2="30" y2="180" stroke="black" stroke-width="2" /><line x1="30" y1="150" x2="60" y2="150" stroke="black" stroke-width="2" /><line x1="60" y1="150" x2="60" y2="180" stroke="black" stroke-width="2" /><line x1="30" y1="180" x2="30" y2="210" stroke="black" stroke-width="2" /><line x1="60" y1="180" x2="60" y2="210" stroke="black" stroke-width="2" /><line x1="30" y1="210" x2="30" y2="240" stroke="black" stroke-width="2" /><line x1="60" y1="210" x2="60" y2="240" stroke="black" stroke-width="2" /><line x1="30" y1="240" x2="60" y2="240" stroke="black" stroke-width="2" /><rect x="270" y="120" width="30" height="30" fill="#00ff00" /><rect x="240" y="150" width="30" height="30" fill="#00ff00" /><rect x="270" y="150" width="30" height="30" fill="#00ff00" /><rect x="270" y="180" width="30" height="30" fill="#00ff00" /><line x1="270" y1="120" x2="270" y2="150" stroke="black" stroke-width="2" /><line x1="270" y1="120" x2="300" y2="120" stroke="black" stroke-width="2" /><line x1="300" y1="120" x2="300" y2="150" stroke="black" stroke-width="2" /><line x1="240" y1="150" x2="240" y2="180" stroke="black" stroke-width="2" /><line x1="240" y1="150" x2="270" y2="150" stroke="black" stroke-width="2" /><line x1="300" y1="150" x2="300" y2="180" stroke="black" stroke-width="2" /><line x1="240" y1="180" x2="270" y2="180" stroke="black" stroke-width="2" /><line x1="270" y1="180" x2="270" y2="210" stroke="black" stroke-width="2" /><line x1="300" y1="180" x2="300" y2="210" stroke="black" stroke-width="2" /><line x1="270" y1="210" x2="300" y2="210" stroke="black" stroke-width="2" /><rect x="300" y="90" width="30" height="30" fill="#00ff00" /><rect x="300" y="120" width="30" height="30" fill="#00ff00" /><rect x="330" y="120" width="30" height="30" fill="#00ff00" /><rect x="300" y="150" width="30" height="30" fill="#00ff00" /><line x1="300" y1="90" x2="300" y2="120" stroke="black" stroke-width="2" /><line x1="300" y1="90" x2="330" y2="90" stroke="black" stroke-width="2" /><line x1="330" y1="90" x2="330" y2="120" stroke="black" stroke-width="2" /><line x1="300" y1="120" x2="300" y2="150" stroke="black" stroke-width="2" /><line x1="330" y1="120" x2="360" y2="120" stroke="black" stroke-width="2" /><line x1="360" y1="120" x2="360" y2="150" stroke="black" stroke-width="2" /><line x1="300" y1="150" x2="300" y2="180" stroke="black" stroke-width="2" /><line x1="330" y1="150" x2="330" y2="180" stroke="black" stroke-width="2" /><line x1="330" y1="150" x2="360" y2="150" stroke="black" stroke-width="2" /><line x1="300" y1="180" x2="330" y2="180" stroke="black" stroke-width="2" /><rect x="150" y="90" width="30" height="30" fill="#00ff00" /><rect x="150" y="120" width="30" height="30" fill="#00ff00" /><rect x="180" y="120" width="30" height="30" fill="#00ff00" /><rect x="150" y="150" width="30" height="30" fill="#00ff00" /><line x1="150" y1="90" x2="150" y2="120" stroke="black" stroke-width="2" /><line x1="150" y1="90" x2="180" y2="90" stroke="black" stroke-width="2" /><line x1="180" y1="90" x2="180" y2="120" stroke="black" stroke-width="2" /><line x1="150" y1="120" x2="150" y2="150" stroke="black" stroke-width="2" /><line x1="180" y1="120" x2="210" y2="120" stroke="black" stroke-width="2" /><line x1="210" y1="120" x2="210" y2="150" stroke="black" stroke-width="2" /><line x1="150" y1="150" x2="150" y2="180" stroke="black" stroke-width="2" /><line x1="180" y1="150" x2="180" y2="180" stroke="black" stroke-width="2" /><line x1="180" y1="150" x2="210" y2="150" stroke="black" stroke-width="2" /><line x1="150" y1="180" x2="180" y2="180" stroke="black" stroke-width="2" /><rect x="120" y="90" width="30" height="30" fill="#1e90ff" /><rect x="120" y="120" width="30" height="30" fill="#1e90ff" /><rect x="120" y="150" width="30" height="30" fill="#1e90ff" /><line x1="120" y1="90" x2="120" y2="120" stroke="black" stroke-width="2" /><line x1="120" y1="90" x2="150" y2="90" stroke="black" stroke-width="2" /><line x1="150" y1="90" x2="150" y2="120" stroke="black" stroke-width="2" /><line x1="120" y1="120" x2="120" y2="150" stroke="black" stroke-width="2" /><line x1="150" y1="120" x2="150" y2="150" stroke="black" stroke-width="2" /><line x1="120" y1="150" x2="120" y2="180" stroke="black" stroke-width="2" /><line x1="150" y1="150" x2="150" y2="180" stroke="black" stroke-width="2" /><line x1="120" y1="180" x2="150" y2="180" stroke="black" stroke-width="2" /><rect x="90" y="90" width="30" height="30" fill="#00ff00" /><rect x="60" y="120" width="30" height="30" fill="#00ff00" /><rect x="90" y="120" width="30" height="30" fill="#00ff00" /><rect x="90" y="150" width="30" height="30" fill="#00ff00" /><line x1="90" y1="90" x2="90" y2="120" stroke="black" stroke-width="2" /><line x1="90" y1="90" x2="120" y2="90" stroke="black" stroke-width="2" /><line x1="120" y1="90" x2="120" y2="120" stroke="black" stroke-width="2" /><line x1="60" y1="120" x2="60" y2="150" stroke="black" stroke-width="2" /><line x1="60" y1="120" x2="90" y2="120" stroke="black" stroke-width="2" /><line x1="120" y1="120" x2="120" y2="150" stroke="black" stroke-width="2" /><line x1="60" y1="150" x2="90" y2="150" stroke="black" stroke-width="2" /><line x1="90" y1="150" x2="90" y2="180" stroke="black" stroke-width="2" /><line x1="120" y1="150" x2="120" y2="180" stroke="black" stroke-width="2" /><line x1="90" y1="180" x2="120" y2="180" stroke="black" stroke-width="2" /><rect x="240" y="60" width="30" height="30" fill="#00ff00" /><rect x="240" y="90" width="30" height="30" fill="#00ff00" /><rect x="270" y="90" width="30" height="30" fill="#00ff00" /><rect x="240" y="120" width="30" height="30" fill="#00ff00" /><line x1="240" y1="60" x2="240" y2="90" stroke="black" stroke-width="2" /><line x1="240" y1="60" x2="270" y2="60" stroke="black" stroke-width="2" /><line x1="270" y1="60" x2="270" y2="90" stroke="black" stroke-width="2" /><line x1="240" y1="90" x2="240" y2="120" stroke="black" stroke-width="2" /><line x1="270" y1="90" x2="300" y2="90" stroke="black" stroke-width="2" /><line x1="300" y1="90" x2="300" y2="120" stroke="black" stroke-width="2" /><line x1="240" y1="120" x2="240" y2="150" stroke="black" stroke-width="2" /><line x1="270" y1="120" x2="270" y2="150" stroke="black" stroke-width="2" /><line x1="270" y1="120" x2="300" y2="120" stroke="black" stroke-width="2" /><line x1="240" y1="150" x2="270" y2="150" stroke="black" stroke-width="2" /><rect x="210" y="60" width="30" height="30" fill="#00ff00" /><rect x="180" y="90" width="30" height="30" fill="#00ff00" /><rect x="210" y="90" width="30" height="30" fill="#00ff00" /><rect x="210" y="120" width="30" height="30" fill="#00ff00" /><line x1="210" y1="60" x2="210" y2="90" stroke="black" stroke-width="2" /><line x1="210" y1="60" x2="240" y2="60" stroke="black" stroke-width="2" /><line x1="240" y1="60" x2="240" y2="90" stroke="black" stroke-width="2" /><line x1="180" y1="90" x2="180" y2="120" stroke="black" stroke-width="2" /><line x1="180" y1="90" x2="210" y2="90" stroke="black" stroke-width="2" /><line x1="240" y1="90" x2="240" y2="120" stroke="black" stroke-width="2" /><line x1="180" y1="120" x2="210" y2="120" stroke="black" stroke-width="2" /><line x1="210" y1="120" x2="210" y2="150" stroke="black" stroke-width="2" /><line x1="240" y1="120" x2="240" y2="150" stroke="black" stroke-width="2" /><line x1="210" y1="150" x2="240" y2="150" stroke="black" stroke-width="2" /><rect x="30" y="60" width="30" height="30" fill="#00ff00" /><rect x="30" y="90" width="30" height="30" fill="#00ff00" /><rect x="60" y="90" width="30" height="30" fill="#00ff00" /><rect x="30" y="120" width="30" height="30" fill="#00ff00" /><line x1="30" y1="60" x2="30" y2="90" stroke="black" stroke-width="2" /><line x1="30" y1="60" x2="60" y2="60" stroke="black" stroke-width="2" /><line x1="60" y1="60" x2="60" y2="90" stroke="black" stroke-width="2" /><line x1="30" y1="90" x2="30" y2="120" stroke="black" stroke-width="2" /><line x1="60" y1="90" x2="90" y2="90" stroke="black" stroke-width="2" /><line x1="90" y1="90" x2="90" y2="120" stroke="black" stroke-width="2" /><line x1="30" y1="120" x2="30" y2="150" stroke="black" stroke-width="2" /><line x1="60" y1="120" x2="60" y2="150" stroke="black" stroke-width="2" /><line x1="60" y1="120" x2="90" y2="120" stroke="black" stroke-width="2" /><line x1="30" y1="150" x2="60" y2="150" stroke="black" stroke-width="2" /><rect x="330" y="30" width="30" height="30" fill="#00ff00" /><rect x="300" y="60" width="30" height="30" fill="#00ff00" /><rect x="330" y="60" width="30" height="30" fill="#00ff00" /><rect x="330" y="90" width="30" height="30" fill="#00ff00" /><line x1="330" y1="30" x2="330" y2="60" stroke="black" stroke-width="2" /><line x1="330" y1="30" x2="360" y2="30" stroke="black" stroke-width="2" /><line x1="360" y1="30" x2="360" y2="60" stroke="black" stroke-width="2" /><line x1="300" y1="60" x2="300" y2="90" stroke="black" stroke-width="2" /><line x1="300" y1="60" x2="330" y2="60" stroke="black" stroke-width="2" /><line x1="360" y1="60" x2="360" y2="90" stroke="black" stroke-width="2" /><line x1="300" y1="90" x2="330" y2="90" stroke="black" stroke-width="2" /><line x1="330" y1="90" x2="330" y2="120" stroke="black" stroke-width="2" /><line x1="360" y1="90" x2="360" y2="120" stroke="black" stroke-width="2" /><line x1="330" y1="120" x2="360" y2="120" stroke="black" stroke-width="2" /><rect x="240" y="30" width="30" height="30" fill="#00ff00" /><rect x="270" y="30" width="30" height="30" fill="#00ff00" /><rect x="300" y="30" width="30" height="30" fill="#00ff00" /><rect x="270" y="60" width="30" height="30" fill="#00ff00" /><line x1="240" y1="30" x2="240" y2="60" stroke="black" stroke-width="2" /><line x1="240" y1="30" x2="270" y2="30" stroke="black" stroke-width="2" /><line x1="270" y1="30" x2="300" y2="30" stroke="black" stroke-width="2" /><line x1="300" y1="30" x2="330" y2="30" stroke="black" stroke-width="2" /><line x1="330" y1="30" x2="330" y2="60" stroke="black" stroke-width="2" /><line x1="240" y1="60" x2="270" y2="60" stroke="black" stroke-width="2" /><line x1="270" y1="60" x2="270" y2="90" stroke="black" stroke-width="2" /><line x1="300" y1="60" x2="300" y2="90" stroke="black" stroke-width="2" /><line x1="300" y1="60" x2="330" y2="60" stroke="black" stroke-width="2" /><line x1="270" y1="90" x2="300" y2="90" stroke="black" stroke-width="2" /><rect x="150" y="30" width="30" height="30" fill="#00ff00" /><rect x="180" y="30" width="30" height="30" fill="#00ff00" /><rect x="210" y="30" width="30" height="30" fill="#00ff00" /><rect x="180" y="60" width="30" height="30" fill="#00ff00" /><line x1="150" y1="30" x2="150" y2="60" stroke="black" stroke-width="2" /><line x1="150" y1="30" x2="180" y2="30" stroke="black" stroke-width="2" /><line x1="180" y1="30" x2="210" y2="30" stroke="black" stroke-width="2" /><line x1="210" y1="30" x2="240" y2="30" stroke="black" stroke-width="2" /><line x1="240" y1="30" x2="240" y2="60" stroke="black" stroke-width="2" /><line x1="150" y1="60" x2="180" y2="60" stroke="black" stroke-width="2" /><line x1="180" y1="60" x2="180" y2="90" stroke="black" stroke-width="2" /><line x1="210" y1="60" x2="210" y2="90" stroke="black" stroke-width="2" /><line x1="210" y1="60" x2="240" y2="60" stroke="black" stroke-width="2" /><line x1="180" y1="90" x2="210" y2="90" stroke="black" stroke-width="2" /><rect x="120" y="30" width="30" height="30" fill="#00ff00" /><rect x="90" y="60" width="30" height="30" fill="#00ff00" /><rect x="120" y="60" width="30" height="30" fill="#00ff00" /><rect x="150" y="60" width="30" height="30" fill="#00ff00" /><line x1="120" y1="30" x2="120" y2="60" stroke="black" stroke-width="2" /><line x1="120" y1="30" x2="150" y2="30" stroke="black" stroke-width="2" /><line x1="150" y1="30" x2="150" y2="60" stroke="black" stroke-width="2" /><line x1="90" y1="60" x2="90" y2="90" stroke="black" stroke-width="2" /><line x1="90" y1="60" x2="120" y2="60" stroke="black" stroke-width="2" /><line x1="150" y1="60" x2="180" y2="60" stroke="black" stroke-width="2" /><line x1="180" y1="60" x2="180" y2="90" stroke="black" stroke-width="2" /><line x1="90" y1="90" x2="120" y2="90" stroke="black" stroke-width="2" /><line x1="120" y1="90" x2="150" y2="90" stroke="black" stroke-width="2" /><line x1="150" y1="90" x2="180" y2="90" stroke="black" stroke-width="2" /><rect x="30" y="30" width="30" height="30" fill="#00ff00" /><rect x="60" y="30" width="30" height="30" fill="#00ff00" /><rect x="90" y="30" width="30" height="30" fill="#00ff00" /><rect x="60" y="60" width="30" height="30" fill="#00ff00" /><line x1="30" y1="30" x2="30" y2="60" stroke="black" stroke-width="2" /><line x1="30" y1="30" x2="60" y2="30" stroke="black" stroke-width="2" /><line x1="60" y1="30" x2="90" y2="30" stroke="black" stroke-width="2" /><line x1="90" y1="30" x2="120" y2="30" stroke="black" stroke-width="2" /><line x1="120" y1="30" x2="120" y2="60" stroke="black" stroke-width="2" /><line x1="30" y1="60" x2="60" y2="60" stroke="black" stroke-width="2" /><line x1="60" y1="60" x2="60" y2="90" stroke="black" stroke-width="2" /><line x1="90" y1="60" x2="90" y2="90" stroke="black" stroke-width="2" /><line x1="90" y1="60" x2="120" y2="60" stroke="black" stroke-width="2" /><line x1="60" y1="90" x2="90" y2="90" stroke="black" stroke-width="2" /></svg>